#Comment line ignore any data following # character 
#Hierarchical Translation and Rotation (.htr) file 
[Header]	
#Header keywords are followed by a single value 
FileType HTR		#Single word string
DataType HTRS		#Translation followed by rotation and scale data
FileVersion 1		#integer
NumSegments 64		#integer
NumFrames 3		#integer
DataFrameRate 30		#integer, data frame rate in this file
EulerRotationOrder ZYX
CalibrationUnits mm
RotationUnits Degrees
GlobalAxisofGravity Y
BoneLengthAxis Y
ScaleFactor 1.00
[SegmentNames&Hierarchy]
#CHILD	PARENT
Pinger_Root GLOBAL
Pelvis Pinger_Root
L_Hip Pelvis
R_Hip Pelvis
Rear_Leg01 Pelvis
Spine1 Pelvis
L_Leg01 L_Hip
L_Leg02 L_Leg01
L_Leg03 L_Leg02
L_Foot L_Leg03
L_Toe1_01 L_Foot
L_Toe2_01 L_Foot
L_Toe3_01 L_Foot
planeAlignerLeft L_Foot
L_Toe1_02 L_Toe1_01
L_Toe1_03 L_Toe1_02
L_Toe2_02 L_Toe2_01
L_Toe2_03 L_Toe2_02
L_Toe3_02 L_Toe3_01
L_Toe3_03 L_Toe3_02
planeLockWeightLeft planeAlignerLeft
R_Leg01 R_Hip
R_Leg02 R_Leg01
R_Leg03 R_Leg02
R_Foot R_Leg03
planeAlignerRight R_Foot
R_Toe1_01 R_Foot
R_Toe2_01 R_Foot
R_Toe3_01 R_Foot
planeLockWeightRight planeAlignerRight
R_Toe1_02 R_Toe1_01
R_Toe1_03 R_Toe1_02
R_Toe2_02 R_Toe2_01
R_Toe2_03 R_Toe2_02
R_Toe3_02 R_Toe3_01
R_Toe3_03 R_Toe3_02
Rear_Leg02 Rear_Leg01
Rear_Leg03 Rear_Leg02
Rear_Leg04 Rear_Leg03
Rear_Foot Rear_Leg04
planeAlignerCenter Rear_Foot
Rear_Toe1_01 Rear_Foot
Rear_Toe2_01 Rear_Foot
Rear_Toe3_01 Rear_Foot
planeLockWeightCenter planeAlignerCenter
Rear_Toe1_02 Rear_Toe1_01
Rear_Toe1_03 Rear_Toe1_02
Rear_Toe2_02 Rear_Toe2_01
Rear_Toe2_03 Rear_Toe2_02
Rear_Toe3_02 Rear_Toe3_01
Rear_Toe3_03 Rear_Toe3_02
Back_Bone Spine1
Head Spine1
Motor_Bone Back_Bone
Ping_Mechanism Back_Bone
BN_LookIK Head
bottomMouth Head
L_Mouth01 Head
L_mouthFront Head
mouthGun Head
R_Mouth01 Head
R_mouthFront Head
TopMouth Head
weapon_bone Head
[BasePosition]
#SegmentName Tx, Ty, Tz, Rx, Ry, Rz, BoneLength
Pinger_Root 0.000000 0.000000 0.000000 -90.000000 0.000000 0.000000 10.000000 
Pelvis 0.000000 0.000000 0.000000 0.000000 0.000000 0.000000 10.000000 
L_Hip 0.000000 0.000000 0.000000 0.000000 0.000000 0.000000 10.000000 
R_Hip 0.000000 0.000000 0.000000 0.000000 0.000000 0.000000 10.000000 
Rear_Leg01 0.000000 0.000000 0.000000 0.000000 0.000000 0.000000 10.000000 
Spine1 0.000000 0.000000 0.000000 0.000000 0.000000 0.000000 10.000000 
L_Leg01 0.000000 0.000000 0.000000 0.000000 0.000000 0.000000 10.000000 
L_Leg02 0.000000 0.000000 0.000000 0.000000 0.000000 0.000000 10.000000 
L_Leg03 0.000000 0.000000 0.000000 0.000000 0.000000 0.000000 10.000000 
L_Foot 0.000000 0.000000 0.000000 0.000000 0.000000 0.000000 10.000000 
L_Toe1_01 0.000000 0.000000 0.000000 0.000000 0.000000 0.000000 10.000000 
L_Toe2_01 0.000000 0.000000 0.000000 0.000000 0.000000 0.000000 10.000000 
L_Toe3_01 0.000000 0.000000 0.000000 0.000000 0.000000 0.000000 10.000000 
planeAlignerLeft 0.000000 0.000000 0.000000 0.000000 0.000000 0.000000 10.000000 
L_Toe1_02 0.000000 0.000000 0.000000 0.000000 0.000000 0.000000 10.000000 
L_Toe1_03 0.000000 0.000000 0.000000 0.000000 0.000000 0.000000 10.000000 
L_Toe2_02 0.000000 0.000000 0.000000 0.000000 0.000000 0.000000 10.000000 
L_Toe2_03 0.000000 0.000000 0.000000 0.000000 0.000000 0.000000 10.000000 
L_Toe3_02 0.000000 0.000000 0.000000 0.000000 0.000000 0.000000 10.000000 
L_Toe3_03 0.000000 0.000000 0.000000 0.000000 0.000000 0.000000 10.000000 
planeLockWeightLeft 0.000000 0.000000 0.000000 0.000000 0.000000 0.000000 10.000000 
R_Leg01 0.000000 0.000000 0.000000 0.000000 0.000000 0.000000 10.000000 
R_Leg02 0.000000 0.000000 0.000000 0.000000 0.000000 0.000000 10.000000 
R_Leg03 0.000000 0.000000 0.000000 0.000000 0.000000 0.000000 10.000000 
R_Foot 0.000000 0.000000 0.000000 0.000000 0.000000 0.000000 10.000000 
planeAlignerRight 0.000000 0.000000 0.000000 0.000000 0.000000 0.000000 10.000000 
R_Toe1_01 0.000000 0.000000 0.000000 0.000000 0.000000 0.000000 10.000000 
R_Toe2_01 0.000000 0.000000 0.000000 0.000000 0.000000 0.000000 10.000000 
R_Toe3_01 0.000000 0.000000 0.000000 0.000000 0.000000 0.000000 10.000000 
planeLockWeightRight 0.000000 0.000000 0.000000 0.000000 0.000000 0.000000 10.000000 
R_Toe1_02 0.000000 0.000000 0.000000 0.000000 0.000000 0.000000 10.000000 
R_Toe1_03 0.000000 0.000000 0.000000 0.000000 0.000000 0.000000 10.000000 
R_Toe2_02 0.000000 0.000000 0.000000 0.000000 0.000000 0.000000 10.000000 
R_Toe2_03 0.000000 0.000000 0.000000 0.000000 0.000000 0.000000 10.000000 
R_Toe3_02 0.000000 0.000000 0.000000 0.000000 0.000000 0.000000 10.000000 
R_Toe3_03 0.000000 0.000000 0.000000 0.000000 0.000000 0.000000 10.000000 
Rear_Leg02 0.000000 0.000000 0.000000 0.000000 0.000000 0.000000 10.000000 
Rear_Leg03 0.000000 0.000000 0.000000 0.000000 0.000000 0.000000 10.000000 
Rear_Leg04 0.000000 0.000000 0.000000 0.000000 0.000000 0.000000 10.000000 
Rear_Foot 0.000000 0.000000 0.000000 0.000000 0.000000 0.000000 10.000000 
planeAlignerCenter 0.000000 0.000000 0.000000 0.000000 0.000000 0.000000 10.000000 
Rear_Toe1_01 0.000000 0.000000 0.000000 0.000000 0.000000 0.000000 10.000000 
Rear_Toe2_01 0.000000 0.000000 0.000000 0.000000 0.000000 0.000000 10.000000 
Rear_Toe3_01 0.000000 0.000000 0.000000 0.000000 0.000000 0.000000 10.000000 
planeLockWeightCenter 0.000000 0.000000 0.000000 0.000000 0.000000 0.000000 10.000000 
Rear_Toe1_02 0.000000 0.000000 0.000000 0.000000 0.000000 0.000000 10.000000 
Rear_Toe1_03 0.000000 0.000000 0.000000 0.000000 0.000000 0.000000 10.000000 
Rear_Toe2_02 0.000000 0.000000 0.000000 0.000000 0.000000 0.000000 10.000000 
Rear_Toe2_03 0.000000 0.000000 0.000000 0.000000 0.000000 0.000000 10.000000 
Rear_Toe3_02 0.000000 0.000000 0.000000 0.000000 0.000000 0.000000 10.000000 
Rear_Toe3_03 0.000000 0.000000 0.000000 0.000000 0.000000 0.000000 10.000000 
Back_Bone 0.000000 0.000000 0.000000 0.000000 0.000000 0.000000 10.000000 
Head 0.000000 0.000000 0.000000 0.000000 0.000000 0.000000 10.000000 
Motor_Bone 0.000000 0.000000 0.000000 0.000000 0.000000 0.000000 10.000000 
Ping_Mechanism 0.000000 0.000000 0.000000 0.000000 0.000000 0.000000 10.000000 
BN_LookIK 0.000000 0.000000 0.000000 0.000000 0.000000 0.000000 10.000000 
bottomMouth 0.000000 0.000000 0.000000 0.000000 0.000000 0.000000 10.000000 
L_Mouth01 0.000000 0.000000 0.000000 0.000000 0.000000 0.000000 10.000000 
L_mouthFront 0.000000 0.000000 0.000000 0.000000 0.000000 0.000000 10.000000 
mouthGun 0.000000 0.000000 0.000000 0.000000 0.000000 0.000000 10.000000 
R_Mouth01 0.000000 0.000000 0.000000 0.000000 0.000000 0.000000 10.000000 
R_mouthFront 0.000000 0.000000 0.000000 0.000000 0.000000 0.000000 10.000000 
TopMouth 0.000000 0.000000 0.000000 0.000000 0.000000 0.000000 10.000000 
weapon_bone 0.000000 0.000000 0.000000 0.000000 0.000000 0.000000 10.000000 
#Beginning of Data. Separated by tabs
#Fr	Tx	Ty	Tz	Rx	Ry	Rz	SF
[Pinger_Root]
11 0.000000 0.000000 0.000000 -0.000075 -0.000000 -0.000016 0.000000
12 0.000000 0.000000 0.000000 -0.000075 0.000002 2.604263 0.000000
13 0.000000 0.000000 0.000000 -0.000076 0.000003 5.226618 0.000000
[Pelvis]
11 563.733154 1011.361267 4424.444824 -34.977371 -84.155342 36.016243 4573.440430
12 697.076721 985.057434 4415.665039 -30.516129 -83.601288 30.837215 4577.592773
13 812.076721 948.146851 4403.719238 -27.812010 -83.142967 27.793348 4577.247559
[L_Hip]
11 5.766392 125.831482 872.656799 160.158691 -45.484905 122.312202 881.701050
12 5.766392 125.831482 872.656799 160.158691 -45.484894 122.312187 881.701050
13 5.766392 125.831482 872.656799 160.158691 -45.484894 122.312202 881.701050
[R_Hip]
11 5.765438 125.836372 -872.654907 38.087841 49.812687 125.703735 881.699829
12 5.765438 125.836372 -872.654907 38.087830 49.812672 125.703735 881.699829
13 5.765438 125.836372 -872.654907 38.087841 49.812698 125.703743 881.699829
[Rear_Leg01]
11 -192.298416 -925.602966 -0.001907 177.853317 -4.990610 -158.548767 945.367432
12 -192.298416 -925.602966 -0.001907 179.518097 -6.694347 -158.848312 945.367432
13 -192.298416 -925.602966 -0.001907 -178.483566 -8.550745 -159.398895 945.367432
[Spine1]
11 290.604584 5.007505 0.000477 9.108881 -13.743349 19.145844 290.647736
12 290.604584 5.007505 0.000477 10.552523 -16.191948 19.343618 290.647736
13 290.604584 5.007505 0.000477 12.045872 -17.987055 19.423014 290.647736
[L_Leg01]
11 761.932007 -0.002384 -0.069261 17.659941 -16.388012 -11.543616 761.932068
12 761.932007 -0.002384 -0.069261 16.080454 -10.920385 -12.630477 761.932068
13 761.932007 -0.002384 -0.069261 16.484362 -6.223752 -16.124195 761.932068
[L_Leg02]
11 1441.140503 -0.000954 -0.000715 1.991587 -0.167025 -123.247169 1441.140503
12 1441.140503 -0.000954 -0.000715 3.452534 0.012494 -129.928391 1441.140503
13 1441.140503 -0.000954 -0.000715 4.230917 0.193464 -130.787262 1441.140503
[L_Leg03]
11 1686.963989 -0.000715 -0.000954 -0.027466 0.010295 117.399559 1686.963989
12 1686.963989 -0.000715 -0.000954 -0.049423 0.021915 122.963020 1686.963989
13 1686.963989 -0.000715 -0.000954 -0.057825 0.029582 125.597893 1686.963989
[L_Foot]
11 3041.570068 -30.715107 11.297464 -9.705609 2.095081 51.465366 3041.746094
12 3041.570068 -30.715107 11.297464 -15.868649 17.251802 47.324608 3041.746094
13 3041.570068 -30.715107 11.297464 -23.587669 30.103121 43.119133 3041.746094
[L_Toe1_01]
11 -188.216690 -224.732346 -21.137953 83.189468 -4.014942 -159.743698 293.899567
12 -188.216690 -224.732346 -21.137953 82.325989 -7.294238 -163.388153 293.899567
13 -188.216690 -224.732346 -21.137953 83.348457 -11.384062 -167.655594 293.899567
[L_Toe2_01]
11 200.746536 -219.926590 148.838394 -82.279480 -13.592451 -64.047539 332.896027
12 200.746536 -219.926590 148.838394 -79.102959 -12.190272 -70.363220 332.896027
13 200.746536 -219.926590 148.838394 -76.393433 -13.166947 -73.528465 332.896027
[L_Toe3_01]
11 188.832520 -219.859131 -191.078659 -98.244980 19.815796 -77.127388 347.140900
12 188.832520 -219.859131 -191.078659 -95.288910 16.641348 -78.497437 347.140900
13 188.832520 -219.859131 -191.078659 -91.662018 11.832766 -76.243492 347.140900
[planeAlignerLeft]
11 61.998886 -810.878784 11.937169 169.342056 -86.300751 89.935905 813.333069
12 54.134491 -777.904968 6.444537 147.895187 -88.173729 111.236603 779.812988
13 39.332840 -687.457336 19.613686 91.558548 -88.255501 167.299744 688.860901
[L_Toe1_02]
11 413.761139 0.000477 0.000000 0.001385 -25.830235 0.001385 413.761139
12 413.761139 0.000477 0.000000 0.001399 -24.062441 0.001399 413.761139
13 413.761139 0.000477 0.000000 0.001434 -20.001308 0.001434 413.761139
[L_Toe1_03]
11 464.317322 0.000358 -0.000089 0.003261 47.806564 0.003261 464.317322
12 464.317322 0.000358 -0.000089 0.008016 73.161858 0.008016 464.317322
13 464.317322 0.000358 -0.000089 179.876419 88.911415 179.876419 464.317322
[L_Toe2_02]
11 342.235809 -0.000477 0.000238 -0.002465 -50.949173 -0.002465 342.235809
12 342.235809 -0.000477 0.000238 -0.002407 -59.735573 -0.002407 342.235809
13 342.235809 -0.000477 0.000238 0.001191 -70.295471 0.001191 342.235809
[L_Toe2_03]
11 420.210846 -0.000715 0.000000 0.007050 48.478203 -0.000429 420.210846
12 420.210846 -0.000715 0.000000 -0.000462 60.659786 -0.004077 420.210846
13 420.210846 -0.000715 0.000000 0.013794 80.238739 0.013794 420.210846
[L_Toe3_02]
11 329.270111 0.000954 0.000000 -0.010625 -69.945045 0.009457 329.270111
12 329.270111 0.000954 0.000000 0.001181 -76.981010 0.001181 329.270111
13 329.270111 0.000954 0.000000 0.001176 -82.431694 0.001176 329.270111
[L_Toe3_03]
11 439.137451 -0.001907 0.000954 -0.002202 73.346748 -0.005736 439.137451
12 439.137451 -0.001907 0.000954 0.000000 89.793465 0.003495 439.137451
13 439.137451 -0.001907 0.000954 -179.998520 69.653564 -179.994965 439.137451
[planeLockWeightLeft]
11 999.999023 0.098267 0.075893 -0.011826 -0.004376 0.005620 999.999023
12 843.748352 0.098267 0.076103 -0.011826 -0.004376 0.005620 843.748352
13 499.998352 0.098267 0.076084 -0.011826 -0.004376 0.005620 499.998383
[R_Leg01]
11 761.455627 -0.001907 -0.000358 127.955849 -5.015752 31.006075 761.455688
12 761.455627 -0.001907 -0.000358 128.651291 -2.993028 32.024624 761.455688
13 761.455627 -0.001907 -0.000358 129.659332 -0.625554 33.143639 761.455688
[R_Leg02]
11 1441.140625 0.000000 -0.000238 -1.845893 -0.510474 -137.292343 1441.140625
12 1441.140625 0.000000 -0.000238 -1.873476 -0.581992 -138.093811 1441.140625
13 1441.140625 0.000000 -0.000238 -1.635476 -0.589731 -138.846405 1441.140625
[R_Leg03]
11 1686.963989 0.000954 0.001431 0.093342 -0.054704 135.883865 1686.963989
12 1686.963989 0.000954 0.001431 0.098946 -0.058820 137.496506 1686.963989
13 1686.963989 0.000954 0.001431 0.106507 -0.064283 139.309280 1686.963989
[R_Foot]
11 3041.560059 -30.531288 -11.204481 -5.224441 6.920446 66.152245 3041.734131
12 3041.560059 -30.531288 -11.204481 -6.056699 8.182659 66.901741 3041.734131
13 3041.560059 -30.531288 -11.204481 -6.345856 6.964210 67.922050 3041.734131
[planeAlignerRight]
11 46.206993 -497.880249 -334.458466 44.348911 -62.845284 -140.817108 601.566589
12 58.254238 -488.954346 -333.687714 46.902069 -61.086193 -143.107773 594.825500
13 56.920609 -489.953522 -333.784302 46.630268 -61.284821 -142.867188 595.572327
[R_Toe1_01]
11 -188.383347 -224.864899 21.052242 79.684616 34.328655 -173.641327 294.101532
12 -188.383347 -224.864899 21.052242 79.762489 36.809307 -173.725845 294.101532
13 -188.383347 -224.864899 21.052242 79.758293 36.533848 -173.711227 294.101532
[R_Toe2_01]
11 200.637817 -220.002121 -148.787384 -62.938541 8.734128 -42.925037 332.857574
12 200.637817 -220.002121 -148.787384 -61.243164 6.928688 -42.225395 332.857574
13 200.637817 -220.002121 -148.787384 -61.426460 7.129492 -42.296509 332.857574
[R_Toe3_01]
11 188.606735 -220.092957 191.126343 -39.167339 -23.128714 -83.568642 347.192566
12 188.606735 -220.092957 191.126343 -36.474564 -23.909697 -84.709206 347.192566
13 188.606735 -220.092957 191.126343 -36.772957 -23.828846 -84.577522 347.192566
[planeLockWeightRight]
11 999.999695 0.000305 0.076101 -0.011823 -0.004379 -0.000027 999.999695
12 999.999695 0.000305 0.076098 -0.011823 -0.004379 -0.000027 999.999695
13 999.999695 0.000305 0.076095 -0.011823 -0.004379 -0.000027 999.999695
[R_Toe1_02]
11 413.762085 0.000477 -0.000119 0.001390 -25.207792 0.001390 413.762085
12 413.762085 0.000477 -0.000119 0.001389 -25.274956 0.001389 413.762085
13 413.762085 0.000477 -0.000119 0.001389 -25.342108 0.001389 413.762085
[R_Toe1_03]
11 464.317810 0.000000 0.001088 0.005263 64.228180 0.005263 464.317810
12 464.317810 0.000000 0.001088 0.005093 63.354397 0.005093 464.317810
13 464.317810 0.000000 0.001088 0.005112 63.453201 0.005112 464.317810
[R_Toe2_02]
11 342.234741 -0.000954 0.000238 0.001196 -67.714851 0.001196 342.234741
12 342.234741 -0.000954 0.000238 0.001196 -67.696999 0.001196 342.234741
13 342.234741 -0.000954 0.000238 0.001196 -67.679153 0.001196 342.234741
[R_Toe2_03]
11 420.210846 0.000715 -0.000268 0.008692 74.479424 0.008692 420.210846
12 420.210846 0.000715 -0.000268 0.008616 74.342857 0.008616 420.210846
13 420.210846 0.000715 -0.000268 0.008542 74.206223 0.008542 420.210846
[R_Toe3_02]
11 329.270355 -0.000477 -0.000954 0.001179 -78.575882 0.001179 329.270355
12 329.270355 -0.000477 -0.000954 0.001179 -78.599319 0.001179 329.270355
13 329.270355 -0.000477 -0.000954 0.001179 -78.622757 0.001179 329.270355
[R_Toe3_03]
11 439.137939 0.000238 0.001431 -179.987564 85.355309 -179.984070 439.137939
12 439.137939 0.000238 0.001431 -179.989380 84.677742 -179.985870 439.137939
13 439.137939 0.000238 0.001431 -179.988968 84.847176 -179.985474 439.137939
[Rear_Leg02]
11 1162.777710 -0.029802 0.005960 0.385124 -2.961643 -118.670906 1162.777710
12 1162.777710 -0.029802 0.005960 0.352988 -2.965987 -118.034615 1162.777710
13 1162.777710 -0.029802 0.005960 0.320803 -2.969974 -117.398262 1162.777710
[Rear_Leg03]
11 607.192505 -0.013351 -0.073195 0.006504 -0.002020 62.711594 607.192505
12 607.192505 -0.013351 -0.073195 0.006510 -0.001998 62.334385 607.192505
13 607.192505 -0.013351 -0.073195 0.006515 -0.001982 62.049126 607.192505
[Rear_Leg04]
11 995.874512 -0.020504 -0.011921 -0.040054 -0.016345 54.875256 995.874573
12 995.874512 -0.020504 -0.011921 -0.039989 -0.016508 54.409122 995.874573
13 995.874512 -0.020504 -0.011921 -0.039921 -0.016671 53.942978 995.874573
[Rear_Foot]
11 3096.176270 -0.067472 -0.041425 -149.546875 85.039200 43.774223 3096.176270
12 3096.176270 -0.067472 -0.041425 -150.925568 84.826797 42.525646 3096.176270
13 3096.176270 -0.067472 -0.041425 -152.977844 84.459320 40.489719 3096.176270
[planeAlignerCenter]
11 -102.881554 -15.212708 -753.999695 12.239834 -7.846689 179.998276 761.138306
12 -119.272888 -15.203094 -751.384399 12.237980 -9.096723 179.999115 760.943909
13 -135.664230 -15.193481 -748.769104 12.236091 -10.346750 -180.000000 761.111572
[Rear_Toe1_01]
11 0.653352 83.966492 -371.173737 12.426961 40.094898 100.271416 380.553192
12 0.653352 83.966492 -371.173737 14.323133 39.878696 101.807129 380.553192
13 0.653352 83.966492 -371.173737 16.204630 39.623814 103.327438 380.553192
[Rear_Toe2_01]
11 178.200760 -294.826019 -362.060547 -17.001444 37.742699 -74.394424 499.765686
12 178.200760 -294.826019 -362.060547 -18.673752 38.301746 -75.816795 499.765686
13 178.200760 -294.826019 -362.060547 -20.376024 38.827568 -77.270271 499.765686
[Rear_Toe3_01]
11 -153.359680 -308.780914 -362.060852 -5.082850 27.767519 -119.098976 499.952881
12 -153.359680 -308.780914 -362.060852 -6.313255 26.900362 -120.021286 499.952881
13 -153.359680 -308.780914 -362.060852 -7.518651 26.015984 -120.915672 499.952881
[planeLockWeightCenter]
11 1000.000244 0.000161 0.076140 -0.011814 -0.004373 -0.000015 1000.000244
12 1000.000244 0.000177 0.076127 -0.011814 -0.004373 -0.000015 1000.000244
13 1000.000244 0.000193 0.076115 -0.011814 -0.004373 -0.000015 1000.000244
[Rear_Toe1_02]
11 379.707825 0.194073 0.000477 -0.000268 -32.032681 0.006948 379.707855
12 379.707825 0.194073 0.000477 -0.000263 -31.971972 0.006946 379.707855
13 379.707825 0.194073 0.000477 -0.000259 -31.911272 0.006943 379.707855
[Rear_Toe1_03]
11 500.129700 0.165701 0.000119 0.000098 53.789959 0.007456 500.129761
12 500.129700 0.165701 0.000119 0.000062 53.466782 0.007427 500.129761
13 500.129700 0.165701 0.000119 0.000027 53.143612 0.007398 500.129761
[Rear_Toe2_02]
11 340.494507 0.000238 -0.000954 0.001188 -71.976570 0.001188 340.494507
12 340.494507 0.000238 -0.000954 0.001188 -72.310089 0.001188 340.494507
13 340.494507 0.000238 -0.000954 0.001188 -72.392334 0.001188 340.494507
[Rear_Toe2_03]
11 433.103577 0.000000 0.000238 0.008098 73.334366 0.008098 433.103546
12 433.103577 0.000000 0.000238 0.008207 73.557129 0.008207 433.103546
13 433.103577 0.000000 0.000238 0.008319 73.779953 0.008319 433.103546
[Rear_Toe3_02]
11 340.494141 -0.000358 -0.000477 0.007549 -65.185547 -0.008726 340.494171
12 340.494141 -0.000358 -0.000477 0.007357 -64.579445 -0.008536 340.494171
13 340.494141 -0.000358 -0.000477 0.007174 -63.973370 -0.008354 340.494171
[Rear_Toe3_03]
11 433.103577 0.001431 -0.000238 -0.000656 62.919430 -0.004253 433.103546
12 433.103577 0.001431 -0.000238 -0.000576 62.028267 -0.004180 433.103546
13 433.103577 0.001431 -0.000238 -0.000530 61.482399 -0.004137 433.103546
[Back_Bone]
11 1312.175781 -701.934692 0.000954 0.000023 -0.000007 -85.606667 1488.125488
12 1312.175781 -701.934692 0.000954 0.000023 -0.000007 -85.606667 1488.125488
13 1312.175781 -701.934692 0.000954 0.000023 -0.000007 -85.606667 1488.125488
[Head]
11 1406.159424 809.709290 0.001431 2.175070 -0.265336 7.525805 1622.625488
12 1406.159424 809.709290 0.001431 2.271545 -0.192741 7.544493 1622.625488
13 1406.159424 809.709290 0.001431 2.368043 -0.120177 7.563299 1622.625488
[Motor_Bone]
11 1158.364380 -417.834747 0.000477 -0.048939 -7.933691 -106.393265 1231.419434
12 1158.364380 -417.834747 0.000477 -0.062307 -6.812620 -106.323189 1231.419434
13 1158.364380 -417.834747 0.000477 -0.080327 -5.137636 -106.227905 1231.419434
[Ping_Mechanism]
11 1230.453979 -435.405243 31.863182 0.000103 -0.000053 82.120995 1305.607178
12 1228.213135 -433.119202 35.842102 0.000103 -0.000053 82.120995 1302.837036
13 1225.972412 -430.833130 39.821018 0.000103 -0.000053 82.120995 1300.081299
[BN_LookIK]
11 193.241119 1380.371704 -0.002861 0.000000 89.965736 -31.038179 1393.832153
12 193.241119 1380.371704 -0.002861 0.000000 89.965736 -31.038179 1393.832153
13 193.241119 1380.371704 -0.002861 0.000000 89.965736 -31.038179 1393.832153
[bottomMouth]
11 -435.092926 615.759399 -0.000954 -0.000022 0.000016 73.527184 753.966492
12 -435.092926 615.759399 -0.000954 -0.000022 0.000016 73.527184 753.966492
13 -435.092926 615.759399 -0.000954 -0.000022 0.000016 73.527184 753.966492
[L_Mouth01]
11 554.440979 7.658243 838.222046 150.204178 23.759130 109.605339 1005.027161
12 554.440979 7.658243 838.222046 150.204178 23.759130 109.605339 1005.027161
13 554.440979 7.658243 838.222046 150.204178 23.759130 109.605339 1005.027161
[L_mouthFront]
11 551.629089 934.514771 339.150421 0.000081 2.804060 79.119301 1136.941284
12 551.629089 934.514771 339.150421 0.000081 2.804060 79.119301 1136.941284
13 551.629089 934.514771 339.150421 0.000081 2.804060 79.119301 1136.941284
[mouthGun]
11 55.332661 1627.420898 0.000000 0.000023 0.000009 -11.038128 1628.361328
12 55.332661 1627.420898 0.000000 0.000023 0.000009 -11.038128 1628.361328
13 55.332661 1627.420898 0.000000 0.000023 0.000009 -11.038128 1628.361328
[R_Mouth01]
11 554.442383 7.659197 -838.223938 29.795891 -23.759109 109.605331 1005.029541
12 554.442383 7.659197 -838.223938 29.795891 -23.759109 109.605331 1005.029541
13 554.442383 7.659197 -838.223938 29.795891 -23.759109 109.605331 1005.029541
[R_mouthFront]
11 551.629089 934.514282 -339.151367 0.000029 -2.803930 79.119133 1136.941162
12 551.629089 934.514282 -339.151367 0.000029 -2.803930 79.119133 1136.941162
13 551.629089 934.514282 -339.151367 0.000029 -2.803930 79.119133 1136.941162
[TopMouth]
11 461.269867 -56.106091 -0.008583 -0.000059 -0.000268 92.025169 464.669525
12 461.269867 -56.106091 -0.008583 -0.000059 -0.000268 92.025169 464.669525
13 461.269867 -56.106091 -0.008583 -0.000059 -0.000268 92.025169 464.669525
[weapon_bone]
11 -987.239868 1448.372803 0.001431 0.000000 89.965736 -31.038221 1752.833740
12 -987.239868 1448.372803 0.001431 0.000000 89.965736 -31.038221 1752.833740
13 -987.239868 1448.372803 0.001431 0.000000 89.965736 -31.038221 1752.833740
